<svg xmlns="http://www.w3.org/2000/svg" width="44" height="47" viewBox="0 0 44 47" fill="none">
  <g clip-path="url(#clip0_80_7775)">
    <path d="M11.5731 44.31C12.1329 44.0257 12.3647 43.3259 12.7802 42.9542C13.3094 42.4818 15.4088 41.9132 15.4876 41.7864C15.5444 41.6902 15.4876 41.4933 15.5051 41.3665C11.6868 40.8723 7.35238 39.6826 4.32137 37.2158C1.29036 34.749 -0.520379 30.3359 0.144432 26.2814C0.393736 24.7462 0.437473 23.9677 0.546817 22.4281C0.765505 19.4671 2.22197 18.0019 4.7325 16.6854C5.19175 16.4448 6.21083 16.1693 6.54324 15.8806C6.85377 15.6138 7.31302 14.7478 7.64542 14.3629C9.70109 11.9705 12.6228 9.96293 15.6931 9.15379C16.1349 7.02814 15.9337 4.37327 14.556 2.63252C13.1957 3.67785 11.4418 4.59196 9.73608 4.88938C7.82475 5.22616 4.79373 4.18083 4.01521 2.26512C3.17982 0.205086 7.31739 1.61781 8.249 1.74027C9.65735 1.92835 11.1226 1.78401 12.5047 1.43849C13.0514 1.30727 15.1902 0.397531 15.422 0.458764C15.7106 0.537492 16.3579 1.47348 16.5285 1.76214C17.2502 2.97805 17.6351 4.98123 17.6832 6.38958C17.7094 7.22059 17.4514 7.94226 17.5826 8.72516C19.4721 8.42337 21.3746 8.18719 23.3035 8.29653C24.3619 8.35777 25.3941 8.62456 26.4132 8.62456C26.5094 8.53272 26.5313 8.42337 26.5226 8.29653C26.5838 7.78918 26.387 7.0194 26.4132 6.38958C26.4919 4.67069 27.2398 1.86274 28.5476 0.668704C29.1074 0.156975 29.781 0.782422 30.3933 0.987988C31.7886 1.46035 33.385 1.88023 34.8721 1.85837C36.3591 1.8365 38.0999 1.17169 39.6613 1.09296C41.4677 1.71841 39.3245 3.49415 38.4498 4.019C35.983 5.49296 33.5993 5.04683 31.1806 3.69097C30.8919 3.52914 29.8116 2.65439 29.7241 2.63689C29.5798 2.61065 29.3917 2.78998 29.2474 2.83809C29.1862 2.80747 29.1862 2.76811 29.2474 2.72874C29.1862 2.38322 29.1381 2.252 28.8363 1.9852C28.5913 1.63093 28.8713 1.22854 29.1381 1.6353C29.6192 1.90648 30.1571 2.3351 30.5552 2.72437C31.7711 3.38481 33.0482 3.98401 34.3734 4.36015C34.8808 4.40827 35.3925 4.40389 35.8999 4.36015C36.6041 4.20707 37.2995 3.98838 37.973 3.70409C38.4804 3.27984 38.9921 2.84246 39.4995 2.39634C39.8494 1.58282 39.3595 1.58719 38.6553 1.74027C35.4581 2.54505 32.1953 2.69375 29.0943 1.1192L28.6963 1.19793C28.8057 1.47348 28.5782 1.90648 28.2589 1.85399C27.8959 2.88182 27.5679 3.90091 27.2748 4.91125C27.2748 5.10369 27.2398 5.28739 27.1655 5.45797C27.2617 5.48421 27.2573 5.52357 27.1655 5.56731C27.0868 5.80787 27.0518 6.06154 27.0561 6.33272C27.2267 6.36333 27.2136 6.46393 27.0561 6.55141C26.9599 7.31244 26.9556 8.08222 27.0561 8.84325C27.1349 8.73391 27.3317 8.8345 27.3842 8.9526C27.5635 8.71641 27.6291 8.77327 27.6029 9.06194L27.8347 9.1013C28.0096 8.77327 28.2983 9.02695 28.4732 9.28063C31.1675 10.0198 33.6037 11.4631 35.5675 13.4794C36.0836 14.0087 37.1245 15.6663 37.5007 15.9419C37.8768 16.2174 38.9265 16.5061 39.4557 16.7947C41.752 18.0325 43.1953 19.4933 43.4184 22.2182C43.484 23.0186 43.3309 23.9327 43.4271 24.7156C43.6152 26.1983 44.0657 27.0731 43.9695 28.7657C43.4971 37.019 35.6856 40.5355 28.4689 41.3665C27.9921 41.8214 30.354 42.4249 30.542 42.5124C30.7563 42.613 30.9488 42.7573 31.1412 42.8929L32.3965 44.4194C32.0466 44.5681 31.5699 44.7168 31.1981 44.8568C30.9313 44.8218 30.8307 44.5418 30.8919 44.0214C30.7301 43.2472 29.1206 42.6524 28.4164 42.4906C28.1802 42.6699 27.979 42.6917 27.8172 42.5649C27.616 42.6874 27.5548 42.4949 27.7078 42.3462C27.5241 42.3156 27.6554 42.0357 27.8172 42.0182C27.9265 41.6595 27.9396 41.419 27.4892 41.5808C27.4235 41.7164 27.3404 41.712 27.2705 41.5808C27.0299 41.6595 26.7762 41.6945 26.5051 41.6902C24.7556 42.2238 21.9782 42.7005 20.1456 42.3637C20.08 42.3506 20.0188 42.2981 19.9575 42.2369L18.7591 42.0182C18.4049 42.1363 17.7663 41.8957 17.4514 41.6902L16.686 41.5808C16.6422 41.7295 16.5635 41.712 16.4673 41.5808C16.3011 41.6377 16.2092 41.7426 16.1393 41.9088C16.2967 42.0051 16.4848 42.4512 16.4673 42.6742C16.4367 43.011 16.2267 43.0023 16.1393 42.6742C15.8287 42.5037 15.5051 42.4293 15.1552 42.4556C14.989 42.7092 14.674 42.8842 14.2104 42.9848C13.878 43.2472 13.5719 43.3609 13.2963 43.3259C13.047 43.7808 12.8414 44.2619 13.0033 44.778L12.8633 44.8524C12.3691 44.6731 12.041 44.52 11.5556 44.3057L11.5731 44.31Z" fill="black"/>
    <path d="M1.31644 22.2708C1.71008 19.0079 2.66793 17.9976 5.79079 16.926C4.67549 18.4306 3.28463 19.7077 2.25243 21.2998C1.94189 21.7809 1.71883 22.3713 1.42579 22.8175C1.23772 22.87 1.20273 22.6863 1.31644 22.2708Z" fill="#FDFDFD"/>
    <path d="M42.7795 22.9268C42.1366 22.0433 41.6292 21.0855 40.9688 20.2107C40.1028 19.0648 39.0268 18.1026 38.1958 16.926C39.3111 17.3721 40.8769 17.9364 41.6248 18.8986C42.5083 20.0314 42.622 21.5535 42.7795 22.9268Z" fill="#FDFDFD"/>
    <path d="M27.5063 41.5853C27.572 41.5765 27.76 41.3841 27.9437 41.4759C28.0181 41.7253 27.9 41.8433 27.8344 42.0227C27.8388 41.6465 27.9306 41.5241 27.5063 41.5853Z" fill="#DF052D"/>
    <path d="M16.4846 41.5853L16.1566 41.9133C16.1391 41.8521 15.9773 41.7602 16.0472 41.5853C16.1916 41.5765 16.3403 41.594 16.4846 41.5853Z" fill="#FB0634"/>
    <path d="M1.42587 22.8175C1.36902 22.9006 1.33403 23.0362 1.20719 23.0362C1.09784 22.7562 1.29904 22.4151 1.31653 22.2708C1.3209 22.4457 1.25092 22.7212 1.42587 22.8175Z" fill="#808080"/>
    <path d="M27.2879 41.5852C27.1348 41.7908 26.763 41.6683 26.5225 41.6945C26.8111 41.6421 26.9861 41.6202 27.2879 41.5852Z" fill="#DF052D"/>
    <path d="M36.3417 15.5046C35.5369 15.3428 34.7497 15.0803 33.9449 14.9054C31.0845 14.2843 28.0928 13.965 25.1668 13.8644C19.2534 13.6676 13.2527 13.9738 7.54053 15.5046C9.66617 13.1428 12.5878 10.5666 15.702 9.64375C22.7612 7.54872 31.5481 9.13639 36.1843 15.1765C36.2674 15.2859 36.3942 15.3165 36.3461 15.5046H36.3417Z" fill="#FEFEFE"/>
    <path d="M14.9585 11.905C15.0635 11.0346 16.5855 9.9762 17.3991 10.0549C17.7752 10.0899 18.6193 10.6016 18.6543 10.9953C18.6893 11.3889 18.1732 11.1352 17.9633 11.1352C16.7824 11.1352 16.0257 11.5333 14.9585 11.905Z" fill="#030303"/>
    <path d="M29.0328 11.905C28.0268 11.5507 27.2483 11.1483 26.1374 11.1352C25.9362 11.1352 25.2801 11.4151 25.337 10.9952C25.3632 10.8115 25.9887 10.2692 26.168 10.1861C27.4233 9.60001 29.3346 11.5813 29.0328 11.905Z" fill="#030303"/>
    <path d="M41.0344 34.7097C39.6042 35.6456 38.2089 36.4373 36.56 36.9446C36.1533 37.0715 34.4169 37.5482 34.1195 37.5132C33.7171 37.4651 32.7068 36.0087 32.4356 35.615C31.9501 34.9108 31.4252 34.0755 31.106 33.2882C31.329 33.0782 33.6908 34.023 34.1151 34.0448C35.003 34.0842 38.6769 32.5359 39.6566 32.0723C40.8288 31.5212 41.9223 30.8389 42.9982 30.1216C42.692 31.7617 42.0141 33.3625 41.0344 34.7053V34.7097Z" fill="#DF052D"/>
    <path d="M39.1803 32.7458C39.2416 33.0564 39.0972 32.9208 38.9441 32.9908C38.2968 33.2926 37.5708 33.5069 36.8929 33.7256C36.8404 33.4456 36.941 33.5288 37.1115 33.4588C37.7764 33.1832 38.498 32.9733 39.1847 32.7458H39.1803Z" fill="#E00930"/>
    <path d="M36.7788 33.6206C36.9799 33.7868 36.6432 33.8568 36.5601 33.8874C36.2102 34.0274 35.5672 34.198 35.1911 34.2723C35.0249 34.3029 34.9855 34.4691 34.8149 34.2198C35.0599 34.1061 36.7 33.555 36.7788 33.6206Z" fill="#E00931"/>
    <path d="M34.0541 34.4912H33.6167V34.7099H34.0541V34.4912Z" fill="#E00F35"/>
    <path d="M20.6092 14.4462C25.0136 14.3412 29.7548 14.6692 34.0542 15.6665C34.7758 15.8327 36.5516 16.1913 37.1027 16.5456C37.5882 16.8561 39.9456 19.804 40.4049 20.4426C41.0303 21.3086 42.3905 23.5961 42.6005 24.5845C43.0029 26.4565 41.354 29.5225 39.7619 30.5416C37.3257 32.0987 31.3075 32.1511 28.622 31.2458C26.6844 30.5941 26.4963 29.0851 25.3679 27.6243C23.321 24.9607 20.5874 25.0219 18.5755 27.6899C17.8232 28.6871 17.2852 30.266 16.2136 30.8915C14.3417 31.9893 8.45895 31.9981 6.35955 31.4645C3.49037 30.7384 1.60965 28.3154 1.43033 25.3762C1.34723 24.0247 2.55876 21.9603 3.32417 20.8362C3.77029 20.1802 6.62635 16.6418 7.10309 16.4319C7.39176 16.305 7.94285 16.1826 8.27963 16.082C12.216 14.9142 16.5154 14.5424 20.6092 14.4462Z" fill="#FEFEFE"/>
    <path d="M18.1204 22.5989C18.2254 23.0975 18.1904 23.4955 18.0111 23.7973C17.788 20.049 14.4946 16.8605 10.6413 18.1201C6.78805 19.3798 6.66558 23.8891 8.19202 27.0732C8.31012 27.4362 8.14391 27.3488 7.97334 27.0732C5.86081 24.0553 5.44093 19.6859 8.96618 17.5341C12.9157 15.1241 17.9193 18.1814 18.1248 22.5989H18.1204Z" fill="black"/>
    <path d="M36.0178 27.0731C35.8253 27.3311 35.6985 27.4405 35.7991 27.0731C37.7498 23.351 36.7176 17.8838 31.7971 17.8401C28.4074 17.8095 26.2643 20.6437 25.98 23.8015C25.7919 23.5304 25.7569 23.1673 25.8706 22.7125C26.0412 17.617 32.5887 14.4679 36.2321 18.5137C38.5327 21.0679 37.7935 24.5188 36.0178 27.0775V27.0731Z" fill="black"/>
    <path d="M12.7758 30.0167C13.2787 30.0998 13.8211 30.0823 14.3022 29.9073C14.5078 29.8286 14.9189 29.7805 15.0676 29.9073C15.2076 29.6537 15.5575 29.5618 15.833 29.6887C15.6974 29.798 15.6449 29.9511 15.4131 30.0867C13.6942 31.0708 11.9404 30.7165 10.4883 29.47C11.3237 29.5531 11.9272 29.9598 12.7801 30.0123L12.7758 30.0167Z" fill="#0B0B0B"/>
    <path d="M31.2155 30.0167C32.0552 29.8942 32.6938 29.6012 33.5073 29.4744C31.8322 30.8565 30.0958 31.1364 28.2676 29.8024C28.1232 29.6624 28.1845 29.6406 28.3769 29.6931C28.4863 29.728 28.5912 29.7674 28.7049 29.8024C29.0855 29.7762 29.3741 29.8505 29.5797 30.0211C30.122 30.0298 30.6688 30.0298 31.2155 30.0211V30.0167Z" fill="#0A0A0A"/>
    <path d="M18.2301 24.672C18.1295 24.7858 18.0595 24.6808 18.0114 24.344C18.0158 24.1647 18.0026 23.981 18.0114 23.7973C18.0289 23.4518 18.1426 23.0625 18.1207 22.5989C18.2869 23.185 18.2782 24.0553 18.2301 24.672Z" fill="#1B1B1B"/>
    <path d="M25.9758 23.7973C25.9845 23.9766 25.967 24.1603 25.9758 24.344C25.897 24.5102 25.8271 24.4359 25.7571 24.1253C25.744 23.688 25.6783 23.0625 25.8664 22.7083C25.8533 23.1369 25.9626 23.4999 25.9758 23.7973Z" fill="#0E0E0E"/>
    <path d="M29.9034 29.9073C29.9734 29.9073 30.0521 29.8986 30.1221 29.9073C30.4195 29.938 30.8263 30.1085 31.2112 30.0167C30.4808 30.126 30.3233 30.1304 29.5754 30.0167C29.4048 29.8111 29.7197 29.8155 29.9034 29.9073Z" fill="#F4F4F4"/>
    <path d="M29.9035 29.9074C29.7854 29.9074 29.6279 29.8812 29.5754 30.0168C29.1949 29.9599 29.0506 29.9074 28.7007 29.7981V29.6887C28.9369 29.7893 29.5448 29.7543 29.8291 29.8199L29.9035 29.9074Z" fill="#B2B2B2"/>
    <path d="M14.193 29.9075H14.3023C14.0661 30.2836 13.1389 30.1743 12.7759 30.0168C13.2089 30.0431 13.5807 29.9162 13.8649 29.9075C13.9743 29.9075 14.0836 29.9162 14.193 29.9075Z" fill="#F5F5F5"/>
    <path d="M25.9755 24.3439C25.9843 24.5451 26.0674 25.1137 25.8662 25.2143C25.7175 24.8513 25.77 24.497 25.7568 24.1252L25.9755 24.3439Z" fill="#383838"/>
    <path d="M36.018 27.0732C35.8737 27.2788 35.7862 27.5062 35.5807 27.7293C35.4276 27.8736 35.3707 27.8124 35.4713 27.62C35.5544 27.4931 35.7337 27.1957 35.7993 27.0732L35.8518 27.1782L36.018 27.0732Z" fill="#2A2A2A"/>
    <path d="M16.0472 29.1462C16.0778 29.2206 16.1259 29.2906 16.1565 29.3649C16.1434 29.483 15.9553 29.5749 15.8285 29.5836C15.6492 29.7105 15.3255 29.7323 15.5005 29.4743C15.5748 29.4349 16.021 29.1681 16.0472 29.1462Z" fill="#D8D8D8"/>
    <path d="M18.2301 24.672C18.2126 24.8863 18.2782 25.1488 18.0114 25.2187C18.0158 24.9301 18.0026 24.637 18.0114 24.344L18.2301 24.672Z" fill="#505050"/>
    <path d="M8.19183 27.0732C8.20933 27.1082 8.58547 27.515 8.35366 27.5106C8.03 27.5019 8.06062 27.2001 7.97314 27.0732L8.13935 27.1782L8.19183 27.0732Z" fill="#424242"/>
    <path d="M8.84363 28.0531C8.64244 28.1274 8.31003 27.7206 8.40626 27.62C8.55496 27.467 8.87425 28.0312 8.84363 28.0531Z" fill="#818181"/>
    <path d="M16.1569 29.3651C16.1569 29.3651 16.2662 29.3914 16.2662 29.4176C16.1963 29.6188 15.9032 29.6319 15.8332 29.6932C15.737 29.6625 15.7414 29.6275 15.8332 29.5838C15.8551 29.5751 15.9776 29.3083 16.1613 29.3651H16.1569Z" fill="#333333"/>
    <path d="M35.5804 27.7248C35.4492 27.8648 35.3924 28.1141 35.1431 28.0529C35.1518 27.8517 35.4055 27.7161 35.4711 27.6155L35.5804 27.7248Z" fill="#7A7A7A"/>
    <path d="M28.3768 29.6887L28.2675 29.798C28.2019 29.7499 27.9438 29.7805 27.9395 29.5793C28.145 29.505 28.2631 29.6493 28.3768 29.6887Z" fill="black"/>
    <path d="M15.0632 29.6887C15.3169 29.715 15.2819 29.7981 15.0632 29.9074C14.6215 30.0036 14.499 29.8943 14.2978 29.9074C14.2628 29.9074 14.2235 29.9074 14.1885 29.9074C14.4072 29.7062 14.8095 29.7762 15.0632 29.6887Z" fill="#B4B4B4"/>
    <path d="M15.8289 29.5793V29.6887C15.549 29.6843 15.3303 29.8461 15.0635 29.9073V29.6887C15.2034 29.6405 15.3653 29.54 15.5009 29.47C15.5052 29.6012 15.7502 29.6056 15.8289 29.5793Z" fill="#B7B7B7"/>
    <path d="M31.5435 29.3651C31.3423 29.435 31.1936 29.4744 31.3248 29.2557L31.2811 29.1245C31.8846 28.7309 32.2783 28.2279 32.6325 27.6199C32.6894 27.3925 32.8425 26.9814 33.0699 26.9639L33.0437 26.4609C33.4329 24.7639 33.1443 22.6514 31.7141 21.5404L31.6528 21.2911C30.262 20.5913 29.0592 20.9106 28.0795 22.1527L27.9395 22.1615C27.8827 22.2621 27.9089 22.3627 27.992 22.4545C27.2178 23.548 27.0385 24.9082 26.9554 26.1985L27.1829 26.369C27.2922 27.5587 28.0707 28.6172 29.1642 29.0939L29.2516 29.3607C29.4047 29.3082 29.5797 29.2907 29.5797 29.47C29.8508 29.4788 30.1089 29.5182 30.3451 29.5794C30.5244 29.4569 30.9268 29.4001 30.7824 29.6887C30.5813 29.7543 30.3713 29.903 30.1264 29.9074C30.0914 30.0474 29.9995 30.0255 29.9077 29.9074C29.4616 29.9205 29.0636 29.8462 28.7093 29.6887C27.3578 29.1245 26.4437 26.7539 26.4174 25.3762C26.365 22.6776 28.5168 19.113 31.5872 20.5388C34.6576 21.9647 34.5483 27.6987 31.5479 29.3651H31.5435Z" fill="#010101"/>
    <path d="M31.3247 29.2556C31.3247 29.2556 31.4296 29.4087 31.5433 29.365C31.1847 29.5618 31.1672 29.5662 30.7779 29.693C30.7036 29.5268 30.4849 29.588 30.3406 29.5836C30.2443 29.553 30.2487 29.518 30.3406 29.4743C30.5592 29.3343 31.106 29.12 31.3247 29.2556Z" fill="#201715"/>
    <path d="M31.6528 21.2866C32.0202 21.3566 32.475 21.9558 32.6806 22.2795C33.4854 23.561 33.6778 25.5685 33.0742 26.9637C32.943 27.0031 32.9037 26.8938 32.9649 26.6357C32.545 26.4608 31.9808 25.6866 31.9808 25.2186C32.1689 24.5932 32.0595 24.0814 31.6528 23.6922C30.8217 23.9415 30.4237 25.0962 31.5434 25.1705L31.7621 25.328C31.9064 25.1967 32.0377 25.4854 32.0901 25.6604C32.3219 26.4301 31.8452 28.4639 31.0054 28.8576C28.7223 29.9248 27.2134 27.1081 27.9307 25.1574C27.5589 25.3542 27.209 25.6298 27.1828 26.0802L26.9597 26.2027C26.6361 24.8993 27.1347 23.2111 27.9438 22.1657L28.0444 22.1964C29.0198 20.9761 30.1963 20.5431 31.6528 21.291V21.2866Z" fill="#51322B"/>
    <path d="M31.7624 25.3238C31.5 25.1401 31.5612 25.0133 31.8718 25.1051C31.9768 25.0745 32.0117 25.1095 31.9811 25.2144C32.3442 25.6824 32.7378 26.0761 32.9652 26.6315C33.009 27.0033 32.764 27.3532 32.5278 27.6156C32.038 29.0765 30.6777 29.5532 29.2563 29.3608C27.9966 28.9234 26.9776 27.5806 26.9644 26.1942C26.9557 25.2975 27.6948 25.0439 28.3815 24.6677C27.6555 26.1242 27.9092 28.5997 29.8686 28.8009C31.828 29.0021 31.8237 27.0121 31.8805 25.5862C31.8849 25.4463 31.7668 25.3369 31.7668 25.3238H31.7624Z" fill="#7D5249"/>
    <path d="M27.9396 22.1614C28.5213 21.4092 29.2824 20.7925 30.284 20.7662C30.8438 20.7531 31.15 21.1117 31.6486 21.2867C31.3643 21.2342 30.9488 21.1074 30.612 21.068C29.2692 20.9149 29.0112 21.4485 28.1583 22.2139C27.9965 22.3583 27.9178 22.5245 27.9396 22.1614Z" fill="#51322B"/>
    <path d="M31.3251 29.2557C31.0408 29.2469 30.7303 29.4438 30.341 29.4744C30.1092 29.5356 29.8555 29.5356 29.5756 29.4744C29.4138 29.4394 29.37 29.4088 29.2476 29.365C29.4881 29.0982 29.8861 29.3388 30.1573 29.3257C31.3032 29.2557 32.0074 28.5865 32.5235 27.6199C32.5541 27.5587 32.5935 27.5587 32.6328 27.6199C32.4798 27.8867 32.4448 28.1316 32.1955 28.4334C31.9199 28.7614 31.5656 28.9189 31.3251 29.2557Z" fill="#84574D"/>
    <path d="M33.0702 26.9638C32.9958 27.1344 32.7378 27.4361 32.6328 27.6198H32.5234C32.694 27.3006 32.8077 26.9638 32.9608 26.6357C33.0046 26.7451 33.0614 26.8413 33.0702 26.9638Z" fill="#7E5349"/>
    <path d="M30.3406 29.4701V29.5794C29.982 29.5663 29.8814 29.5313 29.5752 29.4701C29.8289 29.457 30.0869 29.4919 30.3406 29.4701Z" fill="#7D5249"/>
    <path d="M31.653 23.6879C32.086 23.9897 32.2347 24.7464 31.8717 25.105C31.8717 25.1182 31.758 25.1794 31.7623 25.3237C31.5786 25.3937 31.4343 25.42 31.2419 25.3631C30.1397 25.0526 30.7432 23.3512 31.653 23.6879Z" fill="#FBFAFA"/>
    <path d="M31.9765 25.2142C31.9459 25.1748 31.8977 25.1442 31.8671 25.1048C31.9152 24.5406 32.0464 24.2432 31.6484 23.6877C32.2433 23.9064 32.3657 24.7199 31.9765 25.2142Z" fill="#4A2A23"/>
    <path d="M16.0475 29.1462C16.0475 29.3212 15.6976 29.5792 15.5008 29.4743C15.5008 29.6886 15.2428 29.8023 15.0634 29.6929C14.871 29.8329 14.578 29.9073 14.1887 29.9116C14.0968 30.0341 13.9044 30.0778 13.8607 29.9116C13.6157 29.9029 13.4102 29.7629 13.2046 29.6929C13.0471 29.4043 13.5283 29.5224 13.7513 29.5836C13.9131 29.448 14.1406 29.3737 14.4424 29.3649C16.0957 29.0194 16.5724 27.5848 17.0273 26.1983C16.9704 25.0874 16.743 24.0246 16.345 23.0142C16.0475 22.6556 15.877 22.2969 15.8245 21.9426C14.6173 20.7267 13.0646 20.4425 11.8444 21.7983C10.7772 22.9836 10.6678 24.4751 10.6941 25.984C10.8122 26.0627 10.8515 26.2421 10.8034 26.5307L11.0658 26.6576C11.267 27.4536 11.6957 28.1184 12.3255 28.6389V28.9319C12.5398 28.9319 12.8416 29.1725 12.8722 29.3693C12.9859 29.4961 12.9116 29.5311 12.6535 29.4786C8.85709 27.6635 9.56563 20.3681 13.5851 20.1975C17.6046 20.0269 18.7943 26.7538 16.0344 29.1506L16.0475 29.1462Z" fill="#010101"/>
    <path d="M13.7555 29.5794C13.5806 29.5882 13.3051 29.5094 13.2088 29.6888C12.9508 29.6013 12.907 29.5882 12.6621 29.4701L12.8808 29.3607C13.0251 29.2251 13.7118 29.3432 13.7555 29.5794Z" fill="#251B19"/>
    <path d="M17.0314 26.1984C16.7428 28.1141 15.8068 29.4656 13.7598 29.5793C13.5237 29.4087 13.1825 29.4568 12.8851 29.3606C12.4652 29.2206 12.5614 29.1157 12.3384 28.9232C12.5746 28.7045 12.907 29.1375 13.1825 29.225C13.9261 29.4568 14.8052 29.2381 15.4306 28.7964C16.4672 28.066 16.6553 26.9157 16.9221 25.761C17.0183 25.9184 17.0752 25.9928 17.0314 26.1984Z" fill="#7E534A"/>
    <path d="M15.8287 21.9428C16.9308 23.0275 17.2458 24.7508 17.0271 26.1985C16.9396 26.1241 16.9046 25.9798 16.9177 25.7611C16.7253 25.8442 16.5022 25.7217 16.2529 25.3937C16.664 30.0911 11.643 29.8462 11.8923 25.3281C11.503 25.5905 11.1531 25.9492 11.0438 26.4215L10.8076 26.5265C10.742 26.2859 10.7332 26.2203 10.6982 25.9798C10.6982 24.6152 10.7157 23.4168 11.5161 22.2227C12.6664 20.5038 14.4203 20.5213 15.8243 21.9428H15.8287Z" fill="#51322B"/>
    <path d="M16.9221 25.761C16.9965 28.254 14.7003 30.4453 12.3385 28.9276C11.4418 28.1622 11.1225 27.6723 10.812 26.5264C10.8951 25.761 11.5774 25.2055 12.2291 24.8906C11.9229 26.1153 12.181 27.8429 13.4669 28.4028C15.54 29.3037 16.0736 27.0819 16.0518 25.4898C16.0518 25.3805 15.8462 24.9212 16.1567 25.0568C16.3142 25.1224 16.8128 25.5904 16.9221 25.7697V25.761Z" fill="#7D5249"/>
    <path d="M15.8289 21.9429C15.702 22.0916 15.2296 21.5099 14.9454 21.3569C12.4567 20.0185 10.9784 22.7083 10.8122 24.8384C10.7772 25.2539 11.0396 25.7087 10.7028 25.9799C10.5497 24.9739 10.5454 24.2435 10.8646 23.2507C11.6126 20.9326 14.1581 19.7779 15.8289 21.9429Z" fill="#53332C"/>
    <path d="M15.5836 23.828C15.8417 24.0598 15.9073 25.1489 15.7104 25.3151C15.4699 25.5163 14.9888 25.2582 14.8269 24.9652C14.4158 24.2129 14.98 23.2857 15.5836 23.828Z" fill="#F9F8F8"/>
    <path d="M16.043 24.344H15.938V24.8863H16.043V24.344Z" fill="#422018"/>
    <path d="M26.5224 8.30103L26.7411 8.7384C26.623 8.77776 26.47 8.62906 26.4131 8.62906C26.4043 8.51534 26.5137 8.38413 26.5224 8.30103Z" fill="#B50019"/>
    <path d="M28.7051 1.21097C28.7882 1.12787 28.8275 0.948543 28.9763 0.90918C31.1194 2.01137 33.5512 2.50123 35.948 2.17757C36.4554 2.11196 39.6001 1.24159 39.7313 1.71395C39.8625 2.18632 39.657 2.20381 39.5083 2.40938H39.3989C39.4908 2.12946 39.6263 1.8058 39.2371 1.75331C36.4116 2.37439 34.0586 2.86862 31.1937 2.0551C30.3409 1.81455 29.5755 1.29407 28.7095 1.21097H28.7051Z" fill="#EB052F"/>
    <path d="M37.9818 3.61241C38.0518 3.64302 38.0474 3.68239 37.9818 3.72175C37.2033 4.15475 36.7834 4.25535 35.9087 4.37782C35.4057 4.42155 34.8896 4.42593 34.3822 4.37782C32.9258 4.1635 31.7842 3.52931 30.5639 2.74203C30.4196 2.58895 30.4808 2.53209 30.6733 2.63269C32.8077 4.01917 35.5719 4.96827 37.9862 3.61678L37.9818 3.61241Z" fill="#E9052F"/>
    <path d="M27.2881 5.68545C27.2443 5.7117 27.205 5.67233 27.1787 5.57611C27.1787 5.54112 27.1787 5.50176 27.1787 5.46677C27.2531 5.29619 27.2924 5.11249 27.2881 4.92005C27.4936 3.68665 27.6423 2.96061 28.2721 1.86279L27.2881 5.68108V5.68545Z" fill="#E5052E"/>
    <path d="M27.2878 5.68564C27.3316 5.90432 27.2878 6.30233 27.2878 6.56039C27.1872 7.26019 27.1916 8.02997 27.2878 8.74289C27.3316 8.76476 27.4409 8.72977 27.5065 8.74289C27.4671 8.81287 27.4322 8.88722 27.3972 8.96158C27.3184 8.92659 27.2222 9.01844 27.0691 8.85223C26.9642 8.09557 26.9729 7.32142 27.0691 6.56039C27.0691 6.48603 27.0691 6.41605 27.0691 6.3417C27.0604 6.07053 27.0998 5.81247 27.1785 5.57629C27.2834 5.57192 27.2703 5.60691 27.2878 5.68564Z" fill="#F40531"/>
    <path d="M30.6687 2.62806L30.5593 2.7374C30.0563 2.41374 29.5402 2.11195 29.1422 1.64834C29.151 1.63959 28.8798 1.36842 29.1947 1.42965C29.6408 1.86702 30.1482 2.29128 30.6687 2.62806Z" fill="#E6052F"/>
    <path d="M39.5084 2.40967C39.1454 2.90828 38.4893 3.4375 37.9819 3.71742V3.60808C38.4149 3.36315 38.9573 2.69396 39.399 2.40967H39.5084Z" fill="#E3052E"/>
    <path d="M27.0693 8.84776C26.8638 8.62469 26.9119 6.93205 27.0693 6.55591C27.0344 7.31694 27.0956 8.08672 27.0693 8.84776Z" fill="#DF052D"/>
    <path d="M35.9088 4.37354C35.1958 4.46976 35.1084 4.48288 34.3823 4.37354H35.9088Z" fill="#E3052E"/>
    <path d="M27.0693 6.33718V5.62864L27.1787 5.57178C27.1524 5.81233 27.0781 6.19285 27.0693 6.33718Z" fill="#DF052D"/>
    <path d="M27.1787 5.46689C27.2093 5.22633 27.2574 5.09074 27.2881 4.92017C27.2837 5.09512 27.3537 5.37066 27.1787 5.46689Z" fill="#DF052D"/>
    <path d="M0.988385 29.798C0.86592 29.0369 0.673475 28.1053 0.769697 27.3399C0.787192 27.1912 0.848425 27.0031 0.988385 27.1781C1.05399 27.6461 1.35141 28.8489 1.6357 29.1813C1.72318 29.2862 1.88938 29.2206 1.97248 29.3256C2.36174 29.8023 2.60667 30.2528 3.1184 30.6683C5.47148 32.5797 12.2333 32.7459 15.0369 31.9017C17.8405 31.0576 17.613 30.0035 19.1657 27.9566C20.1935 26.6007 20.7009 26.0278 22.5423 26.194C24.7379 26.3908 25.5951 30.0954 27.1828 31.1582C29.8114 32.9121 36.8925 32.6147 39.7224 31.3813C40.9383 30.852 41.2401 30.2747 42.0098 29.33C42.0929 29.225 42.2635 29.2906 42.351 29.1856C42.7271 28.7351 42.8408 27.6942 43.1645 27.1824C43.287 28.1403 43.1776 29.1813 42.9983 30.126L42.6834 30.594C40.0373 32.2123 37.0325 33.7737 33.9927 34.2548L31.4428 33.5069C31.6484 34.0405 33.5816 37.1896 34.1458 37.3033C34.487 37.3733 36.9713 36.6079 37.3212 36.4548C38.4365 35.965 39.5387 35.4663 40.5446 34.7709L41.0345 34.7141C38.6071 38.0381 33.9884 39.9451 30.0345 40.6799C22.0961 42.1626 7.78083 41.8695 2.73351 34.386C2.76413 34.3117 2.80349 34.316 2.84286 34.386C3.01781 34.3467 3.18838 34.351 3.35896 34.4035L6.89295 36.2099C7.30409 36.4023 9.24166 37.264 9.70091 37.054C10.1602 36.8441 11.8397 34.1061 11.8878 33.6425C11.8878 33.6206 11.4985 33.7212 11.4373 33.7562C9.87586 34.5391 9.39037 34.6397 7.78083 33.9399C7.42218 33.7824 7.06353 33.6119 6.71363 33.4369C6.04007 33.1045 1.50886 30.7033 1.43451 30.3184C1.42139 30.2616 1.42576 30.2003 1.43451 30.1391C1.29017 30.2266 1.14584 30.1172 0.997133 29.8111L0.988385 29.798Z" fill="#FEFEFE"/>
    <path d="M19.4284 30.2355C19.4765 30.3011 19.2709 30.6029 19.319 30.6685C19.3584 30.7253 20.4562 31.119 20.6268 31.1627C20.9592 31.2546 21.6721 31.412 21.9914 31.412C22.3763 31.412 24.5763 30.909 24.6506 30.6073C24.6856 30.4717 24.3532 30.148 24.8474 30.1524C25.1886 30.1524 25.6478 30.7166 25.3198 30.9484C25.1973 31.0315 25.0049 30.8741 24.9918 30.8916C24.9131 30.9834 24.6944 32.9079 24.6113 33.2927C24.362 34.4168 24.0733 35.6939 23.3516 36.6168C23.1854 36.8311 22.42 37.6009 22.2013 37.649C22.0133 37.6927 22.0351 37.5965 22.0439 37.4347L21.882 37.6534C19.5202 36.3719 19.4196 33.2534 18.9866 30.8872C18.0681 31.1584 18.816 29.9118 19.424 30.2355H19.4284Z" fill="#010000"/>
    <path d="M24.4494 31.2195C23.5265 33.1964 20.5611 33.2926 19.647 31.272C21.2696 31.74 22.8354 31.7662 24.4494 31.2195Z" fill="#FCFCFC"/>
    <path d="M22.5949 34.819C22.6955 34.8365 23.4697 35.1601 23.4784 35.2126C23.3035 35.7243 23.0454 36.3891 22.7043 36.7828C22.5818 36.879 22.5075 36.879 22.4856 36.7828L22.3719 36.5816C22.4987 36.4154 23.0717 35.5275 23.0279 35.3832C22.9711 35.1995 20.2987 34.8933 21.1647 35.8424C21.4228 36.1705 21.4971 36.4504 21.3965 36.6734C21.5409 36.8265 21.4796 36.8834 21.2872 36.7828C21.1122 36.6122 20.4299 35.4663 20.4431 35.3088C20.4606 35.0901 21.1997 34.8452 21.3965 34.819C21.7858 34.7096 22.2057 34.7009 22.5949 34.819Z" fill="#E5052E"/>
    <path d="M22.4855 36.7829C22.5511 36.7698 22.6342 36.7916 22.7042 36.7829C22.2581 37.3034 21.7726 37.2509 21.2871 36.7829L21.3965 36.6735C21.4402 36.6298 21.4839 36.5904 21.5233 36.5948C21.7595 36.5948 22.3499 36.6648 22.4855 36.7829Z" fill="#EC052F"/>
    <path d="M22.5949 34.8191C22.3412 34.7797 21.6545 34.7841 21.3965 34.8191C21.672 34.631 22.3412 34.6354 22.5949 34.8191Z" fill="#E1052D"/>
    <path d="M22.4855 36.7829C22.0438 36.8616 21.7988 37.041 21.3965 36.6736C21.2434 36.5336 20.7098 35.4839 20.7535 35.3177C20.8716 34.841 23.1328 34.876 23.2422 35.3177C23.3034 35.5626 22.6998 36.5599 22.4899 36.7829H22.4855Z" fill="#DF052D"/>
    <path d="M15.3912 1.32037C15.5443 1.5653 15.4874 1.77524 15.1725 1.75775C15.1025 1.74462 15.0107 1.77524 14.9538 1.75775C14.827 1.87146 14.7701 1.88896 14.7745 1.81023L13.9697 2.40944C13.2262 2.95178 12.4258 3.35417 11.5685 3.60784C9.93711 4.57444 7.64964 4.72753 6.11445 3.4985C5.94387 3.41977 5.76455 3.34979 5.56773 3.27981C5.12161 2.92554 5.01664 3.00427 4.69298 2.40506C4.40431 1.61341 4.88105 1.6484 5.54149 1.71401C8.80431 2.62375 12.0365 2.64999 15.1463 1.1323C15.3081 1.10606 15.4349 1.14105 15.3868 1.316L15.3912 1.32037Z" fill="#DF052D"/>
    <path d="M15.3914 1.32034C15.5926 1.26348 15.7894 1.67024 15.8288 1.86706C16.4498 2.82491 16.6729 4.08455 16.8303 5.21735C16.9353 5.98713 17.1409 8.13465 16.8959 8.79071C16.8653 8.87381 16.2574 8.95254 16.2311 8.80821C16.6291 7.4436 16.4979 6.07024 16.2661 4.70562C16.0824 4.25513 15.8637 3.81775 15.6101 3.39787C15.3433 3.13545 15.1596 2.82928 14.9103 2.56248C14.8534 2.50125 14.7397 2.52749 14.7353 2.52312C14.7134 2.48376 15.0808 1.96328 15.1727 1.76209C15.2383 1.61338 15.2558 1.45155 15.3914 1.32471V1.32034Z" fill="#DF052D"/>
    <path d="M16.8127 4.59222C16.8127 4.78467 16.8434 4.96837 16.9221 5.13894C17.0008 5.60694 17.1364 6.25425 17.1452 6.71787C17.1539 7.0634 17.1014 8.54173 17.0183 8.78228C16.9352 9.02284 16.1873 9.07095 15.9424 9.06658C16.5066 7.80693 16.5022 6.14053 16.1611 4.81091C16.1479 4.69719 16.1523 4.65783 16.2704 4.70157C16.6553 6.05306 16.7471 7.36518 16.3797 8.73854H16.8171C16.8302 6.57354 16.909 3.82244 15.8374 1.863C15.868 1.78427 15.9074 1.78427 15.9467 1.863C16.4104 2.74213 16.6203 3.63 16.8215 4.59222H16.8127Z" fill="#E7052F"/>
    <path d="M15.9381 1.86722H15.8287C15.8112 1.83661 15.4176 1.34675 15.3913 1.3205C15.1377 1.07557 14.3285 1.61792 14.0005 1.73164C12.0542 2.40519 10.3222 2.68074 8.25775 2.39645C7.29989 2.26523 5.9659 1.7535 5.07365 1.7535C4.47445 1.7535 4.86809 2.11215 4.69751 2.41394C4.47007 1.99406 4.23389 1.88472 4.80685 1.64853C4.99492 1.59168 5.17862 1.54794 5.35357 1.64853C5.42355 1.64853 5.50228 1.64416 5.57226 1.64853L6.11898 1.75788C8.62514 2.25211 10.379 2.53641 12.9289 1.85848C13.3663 1.74038 15.0764 0.992472 15.2339 0.996845C15.575 1.00559 15.8068 1.61354 15.9424 1.86722H15.9381Z" fill="#EA052F"/>
    <path d="M11.5732 3.61239C11.7131 3.5774 11.7481 3.58178 11.6825 3.72174C9.57436 4.67084 8.10041 4.90265 6.00975 3.61239C5.86542 3.45931 5.92665 3.40245 6.11909 3.50305C8.01293 4.59211 9.63559 4.40842 11.5732 3.61239Z" fill="#E5052E"/>
    <path d="M13.9739 2.40967C13.1604 3.0876 12.6443 3.28879 11.6821 3.71742L11.5728 3.60808C12.4038 3.26692 13.1823 2.82517 13.9739 2.40967Z" fill="#E6052E"/>
    <path d="M16.2659 4.70161L16.1566 4.81096C16.0385 4.36046 15.7105 3.86622 15.6099 3.39386C15.623 3.40698 15.6449 3.20579 15.8504 3.52945C16.1041 3.93183 16.1435 4.27298 16.2659 4.70161Z" fill="#EA052F"/>
    <path d="M14.9538 1.75791C14.7308 2.12093 14.3196 2.2259 13.9697 2.41398C14.1709 2.2434 14.5208 1.80602 14.7439 1.69668C14.9013 1.61795 14.9145 1.74917 14.9538 1.75791Z" fill="#E3052E"/>
    <path d="M6.11899 3.50293L6.00964 3.61227C5.79533 3.48106 5.74722 3.4242 5.57227 3.28424C5.68598 3.00432 5.9834 3.4242 6.11899 3.50293Z" fill="#E4052E"/>
    <path d="M16.9219 5.139C16.747 5.04716 16.8213 4.76724 16.8126 4.59229C16.852 4.78473 16.887 4.93344 16.9219 5.139Z" fill="#DF052D"/>
    <path d="M6.11899 1.75803C5.94403 1.75365 5.66849 1.82363 5.57227 1.64868C5.85219 1.67055 5.92217 1.71866 6.11899 1.75803Z" fill="#DF052D"/>
    <path d="M5.35336 1.64853C5.16966 1.64853 4.99034 1.64853 4.80664 1.64853C4.96847 1.58292 5.18716 1.39048 5.35336 1.64853Z" fill="#DF052D"/>
    <path d="M1.42566 30.1261L1.57436 30.2967C1.74057 31.3989 2.10796 32.8947 2.95647 33.5857C2.81214 33.7957 2.81651 33.9838 2.96959 34.1587L2.84275 34.3861H2.73341C1.74494 32.9166 1.2682 31.552 0.988281 29.8024C1.25945 29.7631 1.32506 30.0561 1.42566 30.1305V30.1261Z" fill="#E30B32"/>
    <path d="M2.84279 34.3816L2.51476 33.7824C3.14458 33.5069 2.51038 33.5681 2.39667 33.4413C2.1911 33.2095 1.60939 31.5824 1.50005 31.1932C1.42569 30.9176 1.22013 30.3622 1.42132 30.126C2.59786 30.9832 8.35809 34.3423 9.53463 34.2461C10.042 34.2023 11.2798 33.45 11.8658 33.4194C11.9752 33.415 12.0933 33.4894 12.1151 33.5725C12.172 33.7999 10.8293 36.0699 10.5931 36.4067C9.68334 37.6969 9.46903 37.3952 8.10442 36.9228C6.25869 36.2886 4.57917 35.2476 2.84279 34.3816Z" fill="#DF052D"/>
    <path d="M16.4849 42.6745C16.5461 42.5433 16.6686 42.5826 16.6949 42.692C16.743 42.8757 16.0344 41.9922 16.3974 41.7516C16.5593 41.6466 17.2372 41.7429 17.4821 41.7822C20.6706 42.9107 24.0778 42.3246 27.2837 41.6729C27.8173 41.5679 27.8917 41.8653 27.5024 42.5651H27.8304C27.9704 42.4776 28.3728 42.2327 28.5127 42.2546C28.8014 42.294 30.1485 42.8932 30.4241 43.0856C30.5159 43.1468 30.9795 43.6061 31.0189 43.6848C31.2463 44.1222 31.0451 44.4721 31.2113 44.8613C25.7267 46.8733 19.9183 47.1182 14.298 45.4081L14.0968 45.2462C12.8547 44.9226 12.6666 44.5158 13.3183 43.3349C13.7557 42.9019 14.5517 42.5695 15.1728 42.4602C15.5271 42.4427 15.8551 42.517 16.1569 42.6788C16.3887 42.7313 16.4674 42.6788 16.4849 42.6788V42.6745Z" fill="#DF052D"/>
    <path d="M13.3182 43.3303C13.2701 43.7808 12.9508 44.2094 13.117 44.6818C13.2307 45.0142 14.2804 44.9442 14.3023 45.4035C13.8212 45.2548 13.3532 45.0273 12.8852 44.8568C12.8502 44.1788 12.824 43.8246 13.3226 43.3303H13.3182Z" fill="#E60C34"/>
    <path d="M16.7032 41.5852L17.4686 41.6945C17.9278 41.7995 18.2777 41.9395 18.7763 42.0226L19.9748 42.2413C22.5422 42.3593 24.0292 42.1494 26.5223 41.6945C26.7891 41.6989 27.0427 41.6639 27.2877 41.5852C27.3577 41.5764 27.4364 41.5939 27.5064 41.5852C27.9569 41.4015 27.9525 41.6377 27.8344 42.0226C27.8038 42.11 27.7338 42.3331 27.7251 42.3506C27.7994 42.5037 27.6594 42.6524 27.5064 42.5693C27.4058 42.2413 27.6201 42.1582 27.7251 41.8083C26.8634 41.6421 26.1155 42.0663 25.3457 42.2106C23.2157 42.6087 21.2257 42.7355 19.0781 42.3244C18.1946 42.1538 17.3811 41.6858 16.432 41.8083C16.1783 42.2413 16.9787 42.5168 16.76 42.9017C16.6813 42.8317 16.5851 42.7093 16.4889 42.683C16.2396 42.4337 16.2396 42.2106 16.1608 41.9176C16.069 41.7514 16.1783 41.6421 16.4889 41.5896C16.5589 41.5852 16.6332 41.5896 16.7076 41.5896L16.7032 41.5852Z" fill="#E5052E"/>
    <path d="M16.1565 42.6745C16.1565 42.6745 16.0865 42.7751 16.0121 42.7576C15.7891 42.7051 15.6316 42.3902 15.2511 42.5389L15.1724 42.4558C15.5879 42.3858 15.7891 42.2721 16.1565 42.6745Z" fill="#E9052F"/>
    <path d="M27.8301 42.5651C27.7689 42.6045 27.7339 42.8363 27.5589 42.7838C27.4452 42.7838 27.5283 42.6439 27.5021 42.5651C27.5152 42.4514 27.6989 42.3858 27.7208 42.3464L27.8301 42.5651Z" fill="#250108"/>
    <path d="M17.4646 41.6945C17.2241 41.6683 16.8567 41.7908 16.6992 41.5852C17.0666 41.5896 17.1497 41.6246 17.4646 41.6945Z" fill="#DF052D"/>
    <path d="M19.9748 42.237C19.5855 42.2195 19.1219 42.237 18.7764 42.0183C19.1438 42.0795 19.6424 42.0271 19.9748 42.237Z" fill="#DF052D"/>
    <path d="M17.9019 43.5492C17.8188 43.4005 17.9282 43.3655 18.2299 43.4398C18.3262 43.2999 18.4005 43.3392 18.4486 43.5492C18.5405 43.3698 18.9779 43.4311 18.9954 43.6585C19.1572 43.4529 19.7126 43.5273 19.9794 43.6585C20.2419 43.6935 20.4956 43.7329 20.7449 43.7678C20.9242 43.6104 21.1122 43.606 21.2916 43.7678C21.7289 43.676 22.1663 43.676 22.5993 43.7678C22.8268 43.6016 23.1329 43.606 23.3647 43.7678L24.1301 43.6585C24.3138 43.4617 24.7337 43.4967 25.0049 43.5492C25.0836 43.3655 25.3679 43.383 25.5516 43.4398C25.7134 43.2517 25.9715 43.1774 26.317 43.2211C26.3608 43.1162 26.4701 43.0418 26.645 43.0024C26.7413 43.0243 26.7981 43.0987 26.8594 43.1643C26.8594 43.3348 25.6741 43.6585 25.4466 43.711C23.3254 44.214 19.9926 44.1921 17.915 43.5448L17.9019 43.5492Z" fill="#E4052E"/>
    <path d="M24.668 43.4399C24.7905 43.3305 25.0967 43.348 24.9961 43.5492C24.6943 43.593 24.4362 43.6367 24.1213 43.6586L23.3559 43.7679C23.1022 43.7723 22.8442 43.7679 22.5905 43.7679C22.1575 43.6761 21.7158 43.6761 21.2828 43.7679C21.0991 43.7679 20.9197 43.7679 20.736 43.7679C20.6529 43.7504 20.6179 43.7154 20.6267 43.6586C20.5305 43.628 20.5348 43.593 20.6267 43.5492C20.876 43.4486 21.134 43.4749 21.3921 43.5492C21.7901 43.5492 22.1925 43.5536 22.5905 43.5492C22.9448 43.4661 23.334 43.4443 23.6796 43.5492C23.8327 43.4792 24.0163 43.4443 24.2263 43.4399C24.3444 43.3393 24.5499 43.348 24.6637 43.4399H24.668Z" fill="#38010B"/>
    <path d="M19.3187 43.4397C19.4631 43.3828 19.6293 43.3259 19.7561 43.4397C19.9442 43.479 20.1235 43.514 20.3028 43.549C20.4122 43.4703 20.5259 43.4659 20.6309 43.549V43.6584C20.4647 43.7633 20.176 43.7283 19.9748 43.6584C19.6555 43.6584 19.2969 43.689 18.9907 43.6584C18.6802 43.5971 18.6933 43.4134 18.9907 43.3303C19.0782 43.3434 19.1875 43.4265 19.3187 43.4397Z" fill="#37010B"/>
    <path d="M17.246 43.0024C17.5565 43.0724 17.8102 43.1818 18.0114 43.3305C18.2038 43.278 18.2738 43.313 18.2301 43.4398L17.9021 43.5492C17.7971 43.5185 16.778 43.1249 16.918 43.0068C17.0273 43.0068 17.1366 43.0068 17.246 43.0068V43.0024Z" fill="#E1052D"/>
    <path d="M26.0852 43.1116C26.2776 43.0722 26.352 43.1116 26.3039 43.2209C25.9365 43.3915 25.9015 43.3609 25.5385 43.4396C25.3898 43.4309 25.2804 43.3959 25.2104 43.3303C25.4379 43.1597 25.8053 43.1597 26.0852 43.1116Z" fill="#680315"/>
    <path d="M18.2297 43.221C18.3522 43.3566 18.2822 43.3916 18.011 43.3303C17.753 43.2385 17.4337 43.2516 17.2456 43.0023C17.7311 42.9936 17.8842 43.151 18.2297 43.221Z" fill="#7E031A"/>
    <path d="M18.7767 43.3305C18.8467 43.3436 18.9254 43.3174 18.9954 43.3305V43.6585C18.8511 43.6454 18.6018 43.5842 18.4487 43.5492C18.0988 43.243 18.4705 43.2824 18.7767 43.3305Z" fill="#500210"/>
    <path d="M25.2149 43.3305C25.333 43.3349 25.4905 43.2956 25.5429 43.4399C25.3592 43.4793 25.1843 43.523 24.9962 43.5492C24.9437 43.4093 24.7907 43.4443 24.6682 43.4399C24.572 43.4093 24.5763 43.3743 24.6682 43.3305C24.8475 43.3305 25.0356 43.3218 25.2149 43.3305Z" fill="#510211"/>
    <path d="M23.6838 43.4398C23.78 43.4704 23.7756 43.5054 23.6838 43.5491C23.3208 43.5622 22.9534 43.5448 22.5947 43.5491C22.844 43.3523 23.347 43.4398 23.6838 43.4398Z" fill="#DD052D"/>
    <path d="M21.392 43.5492C21.1383 43.5492 20.8846 43.5492 20.6266 43.5492C20.5173 43.5492 20.4079 43.5492 20.2986 43.5492C20.2023 43.5186 20.2067 43.4836 20.2986 43.4399C20.6397 43.4399 21.1383 43.348 21.3876 43.5492H21.392Z" fill="#DD052D"/>
    <path d="M18.2299 43.2212C18.3961 43.2562 18.6279 43.3043 18.7766 43.3305C18.5186 43.3262 18.4005 43.2562 18.4486 43.5492C18.3786 43.5317 18.2999 43.4617 18.2299 43.4399C18.1993 43.4311 18.1031 43.3655 18.0112 43.3305L18.2299 43.2212Z" fill="#700316"/>
    <path d="M26.6317 43.0023C26.5879 43.2079 26.4217 43.1685 26.3036 43.221L26.085 43.1117C26.2293 43.0898 26.343 42.9367 26.6317 43.0023Z" fill="#88031C"/>
    <path d="M19.9749 43.4397C19.9312 43.536 19.8481 43.4922 19.7562 43.4397C19.6119 43.431 19.4632 43.4529 19.3188 43.4397C19.4282 43.2604 19.8699 43.2648 19.9749 43.4397Z" fill="#DD052D"/>
    <path d="M24.6678 43.3303V43.4396C24.5279 43.4396 24.3704 43.4265 24.2304 43.4396H24.1211C24.2129 43.2647 24.4929 43.3347 24.6678 43.3303Z" fill="#DD052D"/>
    <path d="M19.975 43.4397C20.0844 43.4397 20.1937 43.4397 20.3031 43.4397V43.549C20.1281 43.549 19.8482 43.6146 19.7563 43.4397C19.8263 43.4441 19.9007 43.4397 19.975 43.4397Z" fill="#48020F"/>
    <path d="M24.1215 43.4397H24.2308C24.1215 43.4484 23.9509 43.5403 23.6841 43.549V43.4397C23.8284 43.4397 23.9771 43.4397 24.1215 43.4397Z" fill="#4B020F"/>
    <path d="M22.5949 43.7679C22.1575 43.7679 21.7201 43.7679 21.2871 43.7679C21.602 43.5842 22.3062 43.5842 22.5949 43.7679Z" fill="#150104"/>
    <path d="M20.6312 43.6584C20.6836 43.6671 20.7274 43.7153 20.7405 43.7677C20.4999 43.7677 20.1238 43.8465 19.9751 43.6584C20.1807 43.6584 20.4387 43.6321 20.6312 43.6584Z" fill="#48020F"/>
    <path d="M24.1214 43.6583C23.9114 43.8376 23.6184 43.7632 23.356 43.7676C23.509 43.5664 23.8764 43.6758 24.1214 43.6583Z" fill="#4B020F"/>
    <path d="M29.2517 2.84696C29.0024 3.65173 28.6175 4.41277 28.4295 5.24378C28.1452 6.49905 27.9396 8.09984 28.4863 9.28513C28.1802 9.20203 27.9309 9.17141 27.6116 9.06644C27.8128 8.6903 27.8696 8.9571 27.7034 8.97459C27.5722 8.98772 27.5591 6.5909 27.5853 6.34159C27.6947 5.22629 28.0883 3.66048 28.9193 2.95631C28.7925 2.68076 29.0112 2.54955 29.2474 2.73762C29.2386 2.77261 29.2561 2.81197 29.2474 2.84696H29.2517Z" fill="#060303"/>
    <path d="M39.3988 2.40964C39.0314 2.85576 38.5197 3.38498 37.9817 3.60805C35.7205 5.02514 32.6239 4.19413 30.6688 2.62395C30.0915 2.449 29.4966 1.85417 29.1861 1.54363L29.1424 1.63986C29.1117 1.6661 28.9499 1.58737 28.9237 1.69234C28.9762 1.90666 29.4398 2.24343 29.4616 2.3659C29.4879 2.51023 29.2823 2.62833 29.2517 2.7333C29.1511 2.77703 29.0155 2.93886 28.9237 2.95198C28.6612 3.00884 28.4207 3.46809 28.2632 3.82673C27.5416 5.44502 27.4497 6.97584 27.6859 8.67723L27.5066 8.73409C27.406 8.85218 27.3404 8.90029 27.2879 8.73409C27.1873 8.01242 27.196 7.26888 27.2879 6.55158C27.0911 6.416 27.2092 5.91302 27.2879 5.67683C27.4235 4.39532 27.7777 3.07445 28.272 1.85854C28.4469 1.54801 28.4163 1.4999 28.7094 1.20248L28.9455 1.06689C32.3002 2.74642 35.7074 2.53648 39.2938 1.65735C39.775 1.67047 39.705 2.17345 39.4032 2.40089L39.3988 2.40964Z" fill="#DF052D"/>
    <path d="M28.9238 2.95641C27.6947 4.49598 27.4629 6.98027 27.8959 8.83911C27.979 9.18901 27.8828 9.04905 27.6116 9.06655C27.5854 9.0578 27.4586 8.98782 27.3929 8.95721C27.2311 8.86098 27.2661 8.78663 27.5023 8.73852C27.7385 8.28802 27.3886 7.57947 27.3886 7.05025C27.3886 6.19299 27.8041 4.5747 28.1715 3.78305C28.2283 3.66496 28.6745 2.88206 28.7182 2.84707C28.7838 2.79021 28.9106 2.95641 28.9238 2.95204V2.95641Z" fill="#DF052D"/>
    <path d="M27.2881 8.73841C27.1 8.64656 27.1744 7.44815 27.1788 7.15511C27.1788 6.97142 27.1088 6.66963 27.2881 6.55591C27.3012 7.28195 27.2794 8.01237 27.2881 8.73841Z" fill="#DF052D"/>
  </g>
  <defs>
    <clipPath id="clip0_80_7775">
      <rect width="44" height="46.0819" fill="white" transform="translate(0 0.458984)"/>
    </clipPath>
  </defs>
</svg>